#!OML:ASF H:\Terrain\Patient Classification 1\Terrain2\Thursday\justin.ASF
:FULLY-SPECIFIED
:DEGREES
2712
root -1.97848 18.5785 15.6823 -364.345 2.90833 1.92614
lowerback 1.16028 -0.318891 -3.90572
upperback 2.32423 -0.454551 2.10575
thorax 1.78971 -0.316629 4.36357
lowerneck -12.4155 -0.479572 -8.00228
upperneck 39.1693 0.811126 2.39056
head 15.9901 -0.498411 2.61786
rclavicle -1.07095e-014 2.38542e-015
rhumerus -40.3629 -11.8569 -75.5632
rradius 27.4053
rwrist -11.6673
rhand -20.6005 11.4514
rfingers 7.12502
rthumb 5.76009 -18.4503
lclavicle -1.07095e-014 2.38542e-015
lhumerus -38.6522 5.83218 81.3011
lradius 39.727
lwrist 6.22585
lhand -16.0686 23.1679
lfingers 7.12502
lthumb 10.1339 52.9039
rfemur -15.0618 -8.70248 21.6427
rtibia 28.5194
rfoot 6.4859 1.99742
rtoes 2.65058
lfemur 9.29293 -0.275221 -21.2937
ltibia 52.0905
lfoot -22.9911 -18.5179
ltoes -0.644303
2713
root -2.00048 18.4923 15.8569 -364.439 3.01162 1.39617
lowerback 1.07391 -0.300103 -3.42562
upperback 2.25824 -0.429195 2.2651
thorax 1.7636 -0.295283 4.25674
lowerneck -12.272 -0.428917 -7.76979
upperneck 39.0146 0.84506 2.28645
head 15.872 -0.456916 2.5308
rclavicle 3.78933e-015 -3.57812e-014
rhumerus -40.716 -12.1241 -75.329
rradius 27.1103
rwrist -11.8633
rhand -20.3611 11.8252
rfingers 7.12502
rthumb 5.99117 -18.0701
lclavicle 3.78933e-015 -3.57812e-014
lhumerus -39.0456 6.22539 81.1824
lradius 38.9819
lwrist 5.97874
lhand -15.9798 22.7119
lfingers 7.12502
lthumb 10.2197 52.4437
rfemur -14.2984 -8.78145 22.1781
rtibia 28.9167
rfoot 3.20061 3.21892
rtoes -1.28897
lfemur 9.5578 -0.372216 -20.3269
ltibia 53.1784
lfoot -21.3256 -20.5503
ltoes 6.5311
2714
root -2.02378 18.4388 16.0308 -364.618 2.90808 0.715989
lowerback 1.1507 -0.179927 -2.68245
upperback 2.24242 -0.271798 2.38793
thorax 1.68325 -0.203009 3.9641
lowerneck -12.3291 -0.538347 -7.67394
upperneck 38.9549 0.673547 2.24403
head 15.8678 -0.518158 2.46656
rclavicle -1.2219e-014 1.74931e-014
rhumerus -40.9305 -12.8445 -74.9959
rradius 26.563
rwrist -11.4663
rhand -19.7588 12.3931
rfingers 7.12502
rthumb 6.5727 -17.4849
lclavicle -1.2219e-014 1.74931e-014
lhumerus -39.1291 6.6437 80.9505
lradius 37.9056
lwrist 5.53639
lhand -15.4676 22.7185
lfingers 7.12502
lthumb 10.7137 52.4253
rfemur -13.625 -8.64619 22.8943
rtibia 29.4227
rfoot 0.675825 3.89078
rtoes -3.40754
lfemur 9.86583 0.0553792 -18.996
ltibia 54.2704
lfoot -21.3589 -20.6337
ltoes 0.936388
2715
root -2.04791 18.3236 16.1641 -364.661 2.78418 0.0870148
lowerback 1.36727 -0.0762363 -2.09661
upperback 2.16241 -0.136314 2.55496
thorax 1.46498 -0.122186 3.80606
lowerneck -12.4969 -0.619704 -7.66701
upperneck 38.9833 0.577673 2.21734
head 15.9313 -0.561753 2.44065
rclavicle 1.08586e-014 -1.59028e-014
rhumerus -41.0274 -13.377 -74.6928
rradius 25.9732
rwrist -11.2438
rhand -20.2487 12.1223
rfingers 7.12502
rthumb 6.09971 -17.7699
lclavicle 1.08586e-014 -1.59028e-014
lhumerus -39.1142 7.16715 80.7617
lradius 36.7608
lwrist 5.08768
lhand -15.3678 22.6698
lfingers 7.12502
lthumb 10.81 52.3716
rfemur -12.928 -8.2233 23.6013
rtibia 29.6591
rfoot -1.66238 3.96355
rtoes -2.87969
lfemur 9.56329 0.620425 -17.629
ltibia 55.8321
lfoot -21.1136 -20.8948
ltoes -4.62388
2716
root -2.07752 18.286 16.3156 -364.7 2.74579 -0.361101
lowerback 1.61675 -0.062121 -1.88925
upperback 2.07653 -0.119394 2.77094
thorax 1.23535 -0.10761 3.91272
lowerneck -12.6217 -0.612204 -7.70013
upperneck 38.9379 0.612075 2.21494
head 15.9362 -0.551192 2.45126
rclavicle -4.34841e-015 -3.18055e-015
rhumerus -41.0288 -13.6173 -74.3922
rradius 25.3153
rwrist -10.9364
rhand -21.2559 11.7349
rfingers 7.12502
rthumb 5.12727 -18.1831
lclavicle -4.34841e-015 -3.18055e-015
lhumerus -39.2422 7.71226 80.6886
lradius 35.7001
lwrist 4.91314
lhand -15.8018 22.4494
lfingers 7.12502
lthumb 10.3914 52.1727
rfemur -12.7304 -7.83282 24.0311
rtibia 30.1565
rfoot -3.30454 4.09926
rtoes 2.3748
lfemur 9.26647 0.886209 -16.5666
ltibia 57.2529
lfoot -19.3865 -22.0566
ltoes -4.03605
